<svg width="48" height="48" viewBox="0 0 48 48" fill="none" xmlns="http://www.w3.org/2000/svg">
<circle cx="0.828815" cy="1.25337" r="1.32192" fill="white"/>
<circle cx="3.47249" cy="1.25337" r="1.32192" fill="white"/>
<circle cx="6.1164" cy="1.25337" r="1.32192" fill="white"/>
<circle cx="8.7603" cy="1.25337" r="1.32192" fill="white"/>
<circle cx="11.4042" cy="1.25337" r="1.32192" fill="white"/>
<circle cx="14.0479" cy="1.25337" r="1.32192" fill="white"/>
<circle cx="16.6918" cy="1.25337" r="1.32192" fill="white"/>
<circle cx="19.3357" cy="1.25337" r="1.32192" fill="white"/>
<circle cx="21.9794" cy="1.25337" r="1.32192" fill="white"/>
<circle cx="24.6233" cy="1.25337" r="1.32192" fill="white"/>
<circle cx="27.2672" cy="1.25337" r="1.32192" fill="white"/>
<circle cx="29.9109" cy="1.25337" r="1.32192" fill="white"/>
<circle cx="32.5548" cy="1.25337" r="1.32192" fill="white"/>
<circle cx="35.1987" cy="1.25337" r="1.32192" fill="white"/>
<circle cx="37.8424" cy="1.25337" r="1.32192" fill="white"/>
<circle cx="40.4863" cy="1.25337" r="1.32192" fill="white"/>
<circle cx="43.1302" cy="1.25337" r="1.32192" fill="white"/>
<circle cx="45.7739" cy="1.25337" r="1.32192" fill="white"/>
<circle cx="48.4178" cy="1.25337" r="1.32192" fill="white"/>
<circle cx="0.828815" cy="3.89721" r="1.32192" fill="white"/>
<circle cx="3.47249" cy="3.89721" r="1.32192" fill="white"/>
<circle cx="6.1164" cy="3.89721" r="1.32192" fill="white"/>
<circle cx="8.7603" cy="3.89721" r="1.32192" fill="white"/>
<circle cx="11.4042" cy="3.89721" r="1.32192" fill="white"/>
<circle cx="14.0479" cy="3.89721" r="1.32192" fill="white"/>
<circle cx="16.6918" cy="3.89721" r="1.32192" fill="white"/>
<circle cx="19.3357" cy="3.89721" r="1.32192" fill="white"/>
<circle cx="21.9794" cy="3.89721" r="1.32192" fill="white"/>
<circle cx="24.6233" cy="3.89721" r="1.32192" fill="white"/>
<circle cx="27.2672" cy="3.89721" r="1.32192" fill="white"/>
<circle cx="29.9109" cy="3.89721" r="1.32192" fill="white"/>
<circle cx="32.5548" cy="3.89721" r="1.32192" fill="white"/>
<circle cx="35.1987" cy="3.89721" r="1.32192" fill="white"/>
<circle cx="37.8424" cy="3.89721" r="1.32192" fill="white"/>
<circle cx="40.4863" cy="3.89721" r="1.32192" fill="white"/>
<circle cx="43.1302" cy="3.89721" r="1.32192" fill="white"/>
<circle cx="45.7739" cy="3.89721" r="1.32192" fill="white"/>
<circle cx="48.4178" cy="3.89721" r="1.32192" fill="white"/>
<circle cx="0.828815" cy="6.54106" r="1.32192" fill="white"/>
<circle cx="3.47249" cy="6.54106" r="1.32192" fill="white"/>
<circle cx="6.1164" cy="6.54106" r="1.32192" fill="white"/>
<circle cx="8.7603" cy="6.54106" r="1.32192" fill="white"/>
<circle cx="11.4042" cy="6.54106" r="1.32192" fill="white"/>
<circle cx="14.0479" cy="6.54106" r="1.32192" fill="white"/>
<circle cx="16.6918" cy="6.54106" r="1.32192" fill="white"/>
<circle cx="19.3357" cy="6.54106" r="1.32192" fill="white"/>
<circle cx="21.9794" cy="6.54106" r="1.32192" fill="white"/>
<circle cx="24.6233" cy="6.54106" r="1.32192" fill="white"/>
<circle cx="27.2672" cy="6.54106" r="1.32192" fill="white"/>
<circle cx="29.9109" cy="6.54106" r="1.32192" fill="white"/>
<circle cx="32.5548" cy="6.54106" r="1.32192" fill="white"/>
<circle cx="35.1987" cy="6.54106" r="1.32192" fill="white"/>
<circle cx="37.8424" cy="6.54106" r="1.32192" fill="white"/>
<circle cx="40.4863" cy="6.54106" r="1.32192" fill="white"/>
<circle cx="43.1302" cy="6.54106" r="1.32192" fill="white"/>
<circle cx="45.7739" cy="6.54106" r="1.32192" fill="white"/>
<circle cx="48.4178" cy="6.54106" r="1.32192" fill="white"/>
<circle cx="0.828815" cy="9.1849" r="1.32192" fill="white"/>
<circle cx="3.47249" cy="9.1849" r="1.32192" fill="white"/>
<circle cx="6.1164" cy="9.1849" r="1.32192" fill="white"/>
<circle cx="8.7603" cy="9.1849" r="1.32192" fill="white"/>
<circle cx="11.4042" cy="9.1849" r="1.32192" fill="white"/>
<circle cx="14.0479" cy="9.1849" r="1.32192" fill="white"/>
<circle cx="16.6918" cy="9.1849" r="1.32192" fill="white"/>
<circle cx="19.3357" cy="9.1849" r="1.32192" fill="white"/>
<circle cx="21.9794" cy="9.1849" r="1.32192" fill="white"/>
<circle cx="24.6233" cy="9.1849" r="1.32192" fill="white"/>
<circle cx="27.2672" cy="9.1849" r="1.32192" fill="white"/>
<circle cx="29.9109" cy="9.1849" r="1.32192" fill="white"/>
<circle cx="32.5548" cy="9.1849" r="1.32192" fill="white"/>
<circle cx="35.1987" cy="9.1849" r="1.32192" fill="white"/>
<circle cx="37.8424" cy="9.1849" r="1.32192" fill="white"/>
<circle cx="40.4863" cy="9.1849" r="1.32192" fill="white"/>
<circle cx="43.1302" cy="9.1849" r="1.32192" fill="white"/>
<circle cx="45.7739" cy="9.1849" r="1.32192" fill="white"/>
<circle cx="48.4178" cy="9.1849" r="1.32192" fill="white"/>
<circle cx="0.828815" cy="11.8287" r="1.32192" fill="white"/>
<circle cx="3.47249" cy="11.8287" r="1.32192" fill="white"/>
<circle cx="6.1164" cy="11.8287" r="1.32192" fill="white"/>
<circle cx="8.7603" cy="11.8287" r="1.32192" fill="white"/>
<circle cx="11.4042" cy="11.8287" r="1.32192" fill="white"/>
<circle cx="14.0479" cy="11.8287" r="1.32192" fill="white"/>
<circle cx="16.6918" cy="11.8287" r="1.32192" fill="white"/>
<circle cx="19.3357" cy="11.8287" r="1.32192" fill="white"/>
<circle cx="21.9794" cy="11.8287" r="1.32192" fill="white"/>
<circle cx="24.6233" cy="11.8287" r="1.32192" fill="white"/>
<circle cx="27.2672" cy="11.8287" r="1.32192" fill="white"/>
<circle cx="29.9109" cy="11.8287" r="1.32192" fill="white"/>
<circle cx="32.5548" cy="11.8287" r="1.32192" fill="white"/>
<circle cx="35.1987" cy="11.8287" r="1.32192" fill="white"/>
<circle cx="37.8424" cy="11.8287" r="1.32192" fill="white"/>
<circle cx="40.4863" cy="11.8287" r="1.32192" fill="white"/>
<circle cx="43.1302" cy="11.8287" r="1.32192" fill="white"/>
<circle cx="45.7739" cy="11.8287" r="1.32192" fill="white"/>
<circle cx="48.4178" cy="11.8287" r="1.32192" fill="white"/>
<circle cx="0.828815" cy="14.4726" r="1.32192" fill="white"/>
<circle cx="3.47249" cy="14.4726" r="1.32192" fill="white"/>
<circle cx="6.1164" cy="14.4726" r="1.32192" fill="white"/>
<circle cx="8.7603" cy="14.4726" r="1.32192" fill="white"/>
<circle cx="11.4042" cy="14.4726" r="1.32192" fill="white"/>
<circle cx="14.0479" cy="14.4726" r="1.32192" fill="white"/>
<circle cx="16.6918" cy="14.4726" r="1.32192" fill="white"/>
<circle cx="19.3357" cy="14.4726" r="1.32192" fill="white"/>
<circle cx="21.9794" cy="14.4726" r="1.32192" fill="white"/>
<circle cx="24.6233" cy="14.4726" r="1.32192" fill="white"/>
<circle cx="27.2672" cy="14.4726" r="1.32192" fill="white"/>
<circle cx="29.9109" cy="14.4726" r="1.32192" fill="white"/>
<circle cx="32.5548" cy="14.4726" r="1.32192" fill="white"/>
<circle cx="35.1987" cy="14.4726" r="1.32192" fill="white"/>
<circle cx="37.8424" cy="14.4726" r="1.32192" fill="white"/>
<circle cx="40.4863" cy="14.4726" r="1.32192" fill="white"/>
<circle cx="43.1302" cy="14.4726" r="1.32192" fill="white"/>
<circle cx="45.7739" cy="14.4726" r="1.32192" fill="white"/>
<circle cx="48.4178" cy="14.4726" r="1.32192" fill="white"/>
<circle cx="0.828815" cy="17.1164" r="1.32192" fill="white"/>
<circle cx="3.47249" cy="17.1164" r="1.32192" fill="white"/>
<circle cx="6.1164" cy="17.1164" r="1.32192" fill="white"/>
<circle cx="8.7603" cy="17.1164" r="1.32192" fill="white"/>
<circle cx="11.4042" cy="17.1164" r="1.32192" fill="white"/>
<circle cx="14.0479" cy="17.1164" r="1.32192" fill="white"/>
<circle cx="16.6918" cy="17.1164" r="1.32192" fill="white"/>
<circle cx="19.3357" cy="17.1164" r="1.32192" fill="white"/>
<circle cx="21.9794" cy="17.1164" r="1.32192" fill="white"/>
<circle cx="24.6233" cy="17.1164" r="1.32192" fill="white"/>
<circle cx="27.2672" cy="17.1164" r="1.32192" fill="white"/>
<circle cx="29.9109" cy="17.1164" r="1.32192" fill="white"/>
<circle cx="32.5548" cy="17.1164" r="1.32192" fill="white"/>
<circle cx="35.1987" cy="17.1164" r="1.32192" fill="white"/>
<circle cx="37.8424" cy="17.1164" r="1.32192" fill="white"/>
<circle cx="40.4863" cy="17.1164" r="1.32192" fill="white"/>
<circle cx="43.1302" cy="17.1164" r="1.32192" fill="white"/>
<circle cx="45.7739" cy="17.1164" r="1.32192" fill="white"/>
<circle cx="48.4178" cy="17.1164" r="1.32192" fill="white"/>
<circle cx="0.828815" cy="19.7603" r="1.32192" fill="white"/>
<circle cx="3.47249" cy="19.7603" r="1.32192" fill="white"/>
<circle cx="6.1164" cy="19.7603" r="1.32192" fill="white"/>
<circle cx="8.7603" cy="19.7603" r="1.32192" fill="white"/>
<circle cx="11.4042" cy="19.7603" r="1.32192" fill="white"/>
<circle cx="14.0479" cy="19.7603" r="1.32192" fill="white"/>
<circle cx="16.6918" cy="19.7603" r="1.32192" fill="white"/>
<circle cx="19.3357" cy="19.7603" r="1.32192" fill="white"/>
<circle cx="21.9794" cy="19.7603" r="1.32192" fill="white"/>
<circle cx="24.6233" cy="19.7603" r="1.32192" fill="white"/>
<circle cx="27.2672" cy="19.7603" r="1.32192" fill="white"/>
<circle cx="29.9109" cy="19.7603" r="1.32192" fill="white"/>
<circle cx="32.5548" cy="19.7603" r="1.32192" fill="white"/>
<circle cx="35.1987" cy="19.7603" r="1.32192" fill="white"/>
<circle cx="37.8424" cy="19.7603" r="1.32192" fill="white"/>
<circle cx="40.4863" cy="19.7603" r="1.32192" fill="white"/>
<circle cx="43.1302" cy="19.7603" r="1.32192" fill="white"/>
<circle cx="45.7739" cy="19.7603" r="1.32192" fill="white"/>
<circle cx="48.4178" cy="19.7603" r="1.32192" fill="white"/>
<circle cx="0.828815" cy="22.4041" r="1.32192" fill="white"/>
<circle cx="3.47249" cy="22.4041" r="1.32192" fill="white"/>
<circle cx="6.1164" cy="22.4041" r="1.32192" fill="white"/>
<circle cx="8.7603" cy="22.4041" r="1.32192" fill="white"/>
<circle cx="11.4042" cy="22.4041" r="1.32192" fill="white"/>
<circle cx="14.0479" cy="22.4041" r="1.32192" fill="white"/>
<circle cx="16.6918" cy="22.4041" r="1.32192" fill="white"/>
<circle cx="19.3357" cy="22.4041" r="1.32192" fill="white"/>
<circle cx="21.9794" cy="22.4041" r="1.32192" fill="white"/>
<circle cx="24.6233" cy="22.4041" r="1.32192" fill="white"/>
<circle cx="27.2672" cy="22.4041" r="1.32192" fill="white"/>
<circle cx="29.9109" cy="22.4041" r="1.32192" fill="white"/>
<circle cx="32.5548" cy="22.4041" r="1.32192" fill="white"/>
<circle cx="35.1987" cy="22.4041" r="1.32192" fill="white"/>
<circle cx="37.8424" cy="22.4041" r="1.32192" fill="white"/>
<circle cx="40.4863" cy="22.4041" r="1.32192" fill="white"/>
<circle cx="43.1302" cy="22.4041" r="1.32192" fill="white"/>
<circle cx="45.7739" cy="22.4041" r="1.32192" fill="white"/>
<circle cx="48.4178" cy="22.4041" r="1.32192" fill="white"/>
<circle cx="0.828815" cy="25.0479" r="1.32192" fill="white"/>
<circle cx="3.47249" cy="25.0479" r="1.32192" fill="white"/>
<circle cx="6.1164" cy="25.0479" r="1.32192" fill="white"/>
<circle cx="8.7603" cy="25.0479" r="1.32192" fill="white"/>
<circle cx="11.4042" cy="25.0479" r="1.32192" fill="white"/>
<circle cx="14.0479" cy="25.0479" r="1.32192" fill="white"/>
<circle cx="16.6918" cy="25.0479" r="1.32192" fill="white"/>
<circle cx="19.3357" cy="25.0479" r="1.32192" fill="white"/>
<circle cx="21.9794" cy="25.0479" r="1.32192" fill="white"/>
<circle cx="24.6233" cy="25.0479" r="1.32192" fill="white"/>
<circle cx="27.2672" cy="25.0479" r="1.32192" fill="white"/>
<circle cx="29.9109" cy="25.0479" r="1.32192" fill="white"/>
<circle cx="32.5548" cy="25.0479" r="1.32192" fill="white"/>
<circle cx="35.1987" cy="25.0479" r="1.32192" fill="white"/>
<circle cx="37.8424" cy="25.0479" r="1.32192" fill="white"/>
<circle cx="40.4863" cy="25.0479" r="1.32192" fill="white"/>
<circle cx="43.1302" cy="25.0479" r="1.32192" fill="white"/>
<circle cx="45.7739" cy="25.0479" r="1.32192" fill="white"/>
<circle cx="48.4178" cy="25.0479" r="1.32192" fill="white"/>
<circle cx="0.828815" cy="27.6917" r="1.32192" fill="white"/>
<circle cx="3.47249" cy="27.6917" r="1.32192" fill="white"/>
<circle cx="6.1164" cy="27.6917" r="1.32192" fill="white"/>
<circle cx="8.7603" cy="27.6917" r="1.32192" fill="white"/>
<circle cx="11.4042" cy="27.6917" r="1.32192" fill="white"/>
<circle cx="14.0479" cy="27.6917" r="1.32192" fill="white"/>
<circle cx="16.6918" cy="27.6917" r="1.32192" fill="white"/>
<circle cx="19.3357" cy="27.6917" r="1.32192" fill="white"/>
<circle cx="21.9794" cy="27.6917" r="1.32192" fill="white"/>
<circle cx="24.6233" cy="27.6917" r="1.32192" fill="white"/>
<circle cx="27.2672" cy="27.6917" r="1.32192" fill="white"/>
<circle cx="29.9109" cy="27.6917" r="1.32192" fill="white"/>
<circle cx="32.5548" cy="27.6917" r="1.32192" fill="white"/>
<circle cx="35.1987" cy="27.6917" r="1.32192" fill="white"/>
<circle cx="37.8424" cy="27.6917" r="1.32192" fill="white"/>
<circle cx="40.4863" cy="27.6917" r="1.32192" fill="white"/>
<circle cx="43.1302" cy="27.6917" r="1.32192" fill="white"/>
<circle cx="45.7739" cy="27.6917" r="1.32192" fill="white"/>
<circle cx="48.4178" cy="27.6917" r="1.32192" fill="white"/>
<circle cx="0.828815" cy="30.3355" r="1.32192" fill="white"/>
<circle cx="3.47249" cy="30.3355" r="1.32192" fill="white"/>
<circle cx="6.11641" cy="30.3355" r="1.32192" fill="white"/>
<circle cx="8.76033" cy="30.3355" r="1.32192" fill="white"/>
<circle cx="11.4042" cy="30.3355" r="1.32192" fill="white"/>
<circle cx="14.0479" cy="30.3355" r="1.32192" fill="white"/>
<circle cx="16.6918" cy="30.3355" r="1.32192" fill="white"/>
<circle cx="19.3357" cy="30.3355" r="1.32192" fill="white"/>
<circle cx="21.9794" cy="30.3355" r="1.32192" fill="white"/>
<circle cx="24.6233" cy="30.3355" r="1.32192" fill="white"/>
<circle cx="27.2672" cy="30.3355" r="1.32192" fill="white"/>
<circle cx="29.9109" cy="30.3355" r="1.32192" fill="white"/>
<circle cx="32.5548" cy="30.3355" r="1.32192" fill="white"/>
<circle cx="35.1987" cy="30.3355" r="1.32192" fill="white"/>
<circle cx="37.8424" cy="30.3355" r="1.32192" fill="white"/>
<circle cx="40.4863" cy="30.3355" r="1.32192" fill="white"/>
<circle cx="43.1302" cy="30.3355" r="1.32192" fill="white"/>
<circle cx="45.7739" cy="30.3355" r="1.32192" fill="white"/>
<circle cx="48.4178" cy="30.3355" r="1.32192" fill="white"/>
<circle cx="0.828815" cy="32.9794" r="1.32192" fill="white"/>
<circle cx="3.47249" cy="32.9794" r="1.32192" fill="white"/>
<circle cx="6.1164" cy="32.9794" r="1.32192" fill="white"/>
<circle cx="8.7603" cy="32.9794" r="1.32192" fill="white"/>
<circle cx="11.4042" cy="32.9794" r="1.32192" fill="white"/>
<circle cx="14.0479" cy="32.9794" r="1.32192" fill="white"/>
<circle cx="16.6918" cy="32.9794" r="1.32192" fill="white"/>
<circle cx="19.3357" cy="32.9794" r="1.32192" fill="white"/>
<circle cx="21.9794" cy="32.9794" r="1.32192" fill="white"/>
<circle cx="24.6233" cy="32.9794" r="1.32192" fill="white"/>
<circle cx="27.2672" cy="32.9794" r="1.32192" fill="white"/>
<circle cx="29.9109" cy="32.9794" r="1.32192" fill="white"/>
<circle cx="32.5548" cy="32.9794" r="1.32192" fill="white"/>
<circle cx="35.1987" cy="32.9794" r="1.32192" fill="white"/>
<circle cx="37.8424" cy="32.9794" r="1.32192" fill="white"/>
<circle cx="40.4863" cy="32.9794" r="1.32192" fill="white"/>
<circle cx="43.1302" cy="32.9794" r="1.32192" fill="white"/>
<circle cx="45.7739" cy="32.9794" r="1.32192" fill="white"/>
<circle cx="48.4178" cy="32.9794" r="1.32192" fill="white"/>
<circle cx="0.828815" cy="35.6232" r="1.32192" fill="white"/>
<circle cx="3.47249" cy="35.6232" r="1.32192" fill="white"/>
<circle cx="6.1164" cy="35.6232" r="1.32192" fill="white"/>
<circle cx="8.7603" cy="35.6232" r="1.32192" fill="white"/>
<circle cx="11.4042" cy="35.6232" r="1.32192" fill="white"/>
<circle cx="14.0479" cy="35.6232" r="1.32192" fill="white"/>
<circle cx="16.6918" cy="35.6232" r="1.32192" fill="white"/>
<circle cx="19.3357" cy="35.6232" r="1.32192" fill="white"/>
<circle cx="21.9794" cy="35.6232" r="1.32192" fill="white"/>
<circle cx="24.6233" cy="35.6232" r="1.32192" fill="white"/>
<circle cx="27.2672" cy="35.6232" r="1.32192" fill="white"/>
<circle cx="29.9109" cy="35.6232" r="1.32192" fill="white"/>
<circle cx="32.5548" cy="35.6232" r="1.32192" fill="white"/>
<circle cx="35.1987" cy="35.6232" r="1.32192" fill="white"/>
<circle cx="37.8424" cy="35.6232" r="1.32192" fill="white"/>
<circle cx="40.4863" cy="35.6232" r="1.32192" fill="white"/>
<circle cx="43.1302" cy="35.6232" r="1.32192" fill="white"/>
<circle cx="45.7739" cy="35.6232" r="1.32192" fill="white"/>
<circle cx="48.4178" cy="35.6232" r="1.32192" fill="white"/>
<circle cx="0.828815" cy="38.2671" r="1.32192" fill="white"/>
<circle cx="3.47249" cy="38.2671" r="1.32192" fill="white"/>
<circle cx="6.1164" cy="38.2671" r="1.32192" fill="white"/>
<circle cx="8.7603" cy="38.2671" r="1.32192" fill="white"/>
<circle cx="11.4042" cy="38.2671" r="1.32192" fill="white"/>
<circle cx="14.0479" cy="38.2671" r="1.32192" fill="white"/>
<circle cx="16.6918" cy="38.2671" r="1.32192" fill="white"/>
<circle cx="19.3357" cy="38.2671" r="1.32192" fill="white"/>
<circle cx="21.9794" cy="38.2671" r="1.32192" fill="white"/>
<circle cx="24.6233" cy="38.2671" r="1.32192" fill="white"/>
<circle cx="27.2672" cy="38.2671" r="1.32192" fill="white"/>
<circle cx="29.9109" cy="38.2671" r="1.32192" fill="white"/>
<circle cx="32.5548" cy="38.2671" r="1.32192" fill="white"/>
<circle cx="35.1987" cy="38.2671" r="1.32192" fill="white"/>
<circle cx="37.8424" cy="38.2671" r="1.32192" fill="white"/>
<circle cx="40.4863" cy="38.2671" r="1.32192" fill="white"/>
<circle cx="43.1302" cy="38.2671" r="1.32192" fill="white"/>
<circle cx="45.7739" cy="38.2671" r="1.32192" fill="white"/>
<circle cx="48.4178" cy="38.2671" r="1.32192" fill="white"/>
<circle cx="0.828815" cy="40.9109" r="1.32192" fill="white"/>
<circle cx="3.47249" cy="40.9109" r="1.32192" fill="white"/>
<circle cx="6.1164" cy="40.9109" r="1.32192" fill="white"/>
<circle cx="8.7603" cy="40.9109" r="1.32192" fill="white"/>
<circle cx="11.4042" cy="40.9109" r="1.32192" fill="white"/>
<circle cx="14.0479" cy="40.9109" r="1.32192" fill="white"/>
<circle cx="16.6918" cy="40.9109" r="1.32192" fill="white"/>
<circle cx="19.3357" cy="40.9109" r="1.32192" fill="white"/>
<circle cx="21.9794" cy="40.9109" r="1.32192" fill="white"/>
<circle cx="24.6233" cy="40.9109" r="1.32192" fill="white"/>
<circle cx="27.2672" cy="40.9109" r="1.32192" fill="white"/>
<circle cx="29.9109" cy="40.9109" r="1.32192" fill="white"/>
<circle cx="32.5548" cy="40.9109" r="1.32192" fill="white"/>
<circle cx="35.1987" cy="40.9109" r="1.32192" fill="white"/>
<circle cx="37.8424" cy="40.9109" r="1.32192" fill="white"/>
<circle cx="40.4863" cy="40.9109" r="1.32192" fill="white"/>
<circle cx="43.1302" cy="40.9109" r="1.32192" fill="white"/>
<circle cx="45.7739" cy="40.9109" r="1.32192" fill="white"/>
<circle cx="48.4178" cy="40.9109" r="1.32192" fill="white"/>
<circle cx="0.828815" cy="43.5547" r="1.32192" fill="white"/>
<circle cx="3.47249" cy="43.5547" r="1.32192" fill="white"/>
<circle cx="6.1164" cy="43.5547" r="1.32192" fill="white"/>
<circle cx="8.7603" cy="43.5547" r="1.32192" fill="white"/>
<circle cx="11.4042" cy="43.5547" r="1.32192" fill="white"/>
<circle cx="14.0479" cy="43.5547" r="1.32192" fill="white"/>
<circle cx="16.6918" cy="43.5547" r="1.32192" fill="white"/>
<circle cx="19.3357" cy="43.5547" r="1.32192" fill="white"/>
<circle cx="21.9794" cy="43.5547" r="1.32192" fill="white"/>
<circle cx="24.6233" cy="43.5547" r="1.32192" fill="white"/>
<circle cx="27.2672" cy="43.5547" r="1.32192" fill="white"/>
<circle cx="29.9109" cy="43.5547" r="1.32192" fill="white"/>
<circle cx="32.5548" cy="43.5547" r="1.32192" fill="white"/>
<circle cx="35.1987" cy="43.5547" r="1.32192" fill="white"/>
<circle cx="37.8424" cy="43.5547" r="1.32192" fill="white"/>
<circle cx="40.4863" cy="43.5547" r="1.32192" fill="white"/>
<circle cx="43.1302" cy="43.5547" r="1.32192" fill="white"/>
<circle cx="45.7739" cy="43.5547" r="1.32192" fill="white"/>
<circle cx="48.4178" cy="43.5547" r="1.32192" fill="white"/>
<circle cx="0.828815" cy="46.1986" r="1.32192" fill="white"/>
<circle cx="3.47249" cy="46.1986" r="1.32192" fill="white"/>
<circle cx="6.1164" cy="46.1986" r="1.32192" fill="white"/>
<circle cx="8.7603" cy="46.1986" r="1.32192" fill="white"/>
<circle cx="11.4042" cy="46.1986" r="1.32192" fill="white"/>
<circle cx="14.0479" cy="46.1986" r="1.32192" fill="white"/>
<circle cx="16.6918" cy="46.1986" r="1.32192" fill="white"/>
<circle cx="19.3357" cy="46.1986" r="1.32192" fill="white"/>
<circle cx="21.9794" cy="46.1986" r="1.32192" fill="white"/>
<circle cx="24.6233" cy="46.1986" r="1.32192" fill="white"/>
<circle cx="27.2672" cy="46.1986" r="1.32192" fill="white"/>
<circle cx="29.9109" cy="46.1986" r="1.32192" fill="white"/>
<circle cx="32.5548" cy="46.1986" r="1.32192" fill="white"/>
<circle cx="35.1987" cy="46.1986" r="1.32192" fill="white"/>
<circle cx="37.8424" cy="46.1986" r="1.32192" fill="white"/>
<circle cx="40.4863" cy="46.1986" r="1.32192" fill="white"/>
<circle cx="43.1302" cy="46.1986" r="1.32192" fill="white"/>
<circle cx="45.7739" cy="46.1986" r="1.32192" fill="white"/>
<circle cx="48.4178" cy="46.1986" r="1.32192" fill="white"/>
</svg>
